<svg xmlns="http://www.w3.org/2000/svg" xmlns:xlink="http://www.w3.org/1999/xlink" width="30" height="31" viewBox="0 0 30 31"><defs><path id="d2c0a" d="M1243 4243.5a15 15 0 1 1-30 0 15 15 0 0 1 30 0zm-15.91 0a3.13 3.13 0 0 0-3.1-3.16 3.13 3.13 0 0 0-3.1 3.16 3.13 3.13 0 0 0 3.1 3.16c1.71 0 3.1-1.41 3.1-3.16zm8.02 0a3.13 3.13 0 0 0-3.1-3.16 3.13 3.13 0 0 0-3.1 3.16 3.13 3.13 0 0 0 3.1 3.16c1.7 0 3.1-1.41 3.1-3.16z"/></defs><g><g transform="translate(-1213 -4228)"><use fill="#999" xlink:href="#d2c0a"/></g></g></svg>