<svg xmlns="http://www.w3.org/2000/svg" xmlns:xlink="http://www.w3.org/1999/xlink" width="30" height="31" viewBox="0 0 30 31"><defs><path id="84a2a" d="M1285 4243.5a15 15 0 1 1-30 0 15 15 0 0 1 30 0zm-18.67-3.56h-3.04v9.78h3.04zm.1-2.72c-.02-.86-.62-1.51-1.6-1.51-.98 0-1.62.65-1.62 1.51 0 .84.62 1.52 1.58 1.52 1.02 0 1.64-.68 1.64-1.52zm11 6.72c0-2.88-1.5-4.22-3.5-4.22-1.65 0-2.62.94-3.02 1.58h-.06l-.14-1.36h-2.64c.04.88.08 1.9.08 3.12v6.66h3.03v-5.64c0-.28.03-.56.1-.76.23-.56.72-1.14 1.56-1.14 1.1 0 1.54.86 1.54 2.12v5.42h3.04z"/></defs><g><g transform="translate(-1255 -4228)"><use fill="#999" xlink:href="#84a2a"/></g></g></svg>