<svg xmlns="http://www.w3.org/2000/svg" xmlns:xlink="http://www.w3.org/1999/xlink" width="30" height="31" viewBox="0 0 30 31"><defs><path id="56kxa" d="M1201 4243.5a15 15 0 1 1-30 0 15 15 0 0 1 30 0zm-7.42-4.24c-.53.23-1.1.4-1.7.46a2.97 2.97 0 0 0 1.3-1.63c-.57.34-1.2.58-1.88.72a2.95 2.95 0 0 0-5.03 2.7 8.39 8.39 0 0 1-6.1-3.1 2.94 2.94 0 0 0 .92 3.95 2.94 2.94 0 0 1-1.34-.37v.04a2.96 2.96 0 0 0 2.37 2.9 2.97 2.97 0 0 1-1.33.04 2.96 2.96 0 0 0 2.76 2.06 5.92 5.92 0 0 1-4.37 1.22 8.37 8.37 0 0 0 4.52 1.33c5.44 0 8.4-4.5 8.4-8.4v-.4a6.01 6.01 0 0 0 1.48-1.52z"/></defs><g><g transform="translate(-1171 -4228)"><use fill="#999" xlink:href="#56kxa"/></g></g></svg>