<?xml version="1.0" standalone="no"?>
<!DOCTYPE svg PUBLIC "-//W3C//DTD SVG 20010904//EN"
 "http://www.w3.org/TR/2001/REC-SVG-20010904/DTD/svg10.dtd">
<svg version="1.0" xmlns="http://www.w3.org/2000/svg"
 width="130.000000pt" height="38.000000pt" viewBox="0 0 130.000000 38.000000"
 preserveAspectRatio="xMidYMid meet">

<g transform="translate(0.000000,38.000000) scale(0.100000,-0.100000)"
fill="#000000" stroke="none">
<path d="M0 190 l0 -190 650 0 c571 0 650 2 650 15 0 11 -11 15 -39 15 -34 0
-42 5 -61 35 -12 19 -23 35 -25 35 -2 0 -13 -16 -25 -35 -20 -32 -26 -35 -67
-35 l-45 0 45 63 44 63 -38 55 c-21 30 -38 57 -39 62 0 4 18 7 40 7 36 0 43
-4 61 -35 12 -19 22 -35 24 -35 2 0 13 16 25 35 19 30 27 35 61 35 l39 0 0 50
0 50 -650 0 -650 0 0 -190z m750 10 l0 -170 -40 0 -40 0 0 170 0 170 40 0 40
0 0 -170z m-601 37 c17 -56 31 -108 31 -114 0 -7 4 -13 8 -13 4 0 23 51 42
114 34 113 35 114 67 118 18 2 33 2 33 -2 0 -3 -23 -71 -51 -152 l-51 -148
-37 0 -36 0 -49 143 c-27 78 -51 147 -53 153 -2 6 9 9 30 6 34 -4 35 -5 66
-105z m441 16 c22 -21 32 -40 36 -75 l7 -48 -82 0 c-88 0 -100 -10 -49 -39 22
-13 31 -12 71 1 l47 15 -6 -26 c-3 -14 -7 -31 -9 -37 -5 -17 -82 -26 -125 -14
-58 16 -80 50 -80 126 0 56 3 65 31 93 26 26 38 31 80 31 39 0 55 -5 79 -27z
m406 -7 c30 -30 34 -40 34 -88 0 -101 -77 -161 -162 -125 -57 25 -73 51 -73
124 0 60 2 67 33 94 27 24 41 29 83 29 45 0 55 -4 85 -34z"/>
<path d="M498 223 c-9 -2 -19 -11 -22 -19 -4 -11 4 -14 34 -14 22 0 40 4 40
10 0 13 -32 27 -52 23z"/>
<path d="M882 208 c-14 -14 -16 -86 -3 -106 5 -8 21 -12 37 -10 27 3 29 6 32
51 2 27 -2 55 -9 63 -14 17 -41 18 -57 2z"/>
<path d="M1259 209 l-36 -54 36 -54 36 -55 3 58 c2 31 2 80 0 108 l-3 52 -36
-55z"/>
</g>
</svg>
